Patient4_TMGait_0pt7_01_left_17_GRF.mot
version=1
nRows=38
nColumns=19
inDegrees=no
endheader
time	F1x	F1y	F1z	M1x	M1y	M1z	F2x	F2y	F2z	M2x	M2y	M2z	EC1x	EC1y	EC1z	EC2x	EC2y	EC2z
19.48	31.717	23.5368	21.7176	-6.4882	-12.1396	-9.0747	-64.9615	733.9271	-53.8649	299.1215	89.6784	853.2298	-0.0592	0.0182	-0.0073	-0.0462	0.0165	0.9585
19.4916	21.2438	16.8636	14.7138	-4.7211	-8.3801	-4.9493	-56.0435	748.0107	-58.9263	302.8686	91.1034	857.3303	-0.0592	0.0182	-0.0073	-0.0462	0.0165	0.9585
19.5033	12.4718	11.1769	8.8563	-3.2174	-5.2352	-1.5919	-47.9257	758.1107	-63.2112	305.268	91.9017	857.6304	-0.0592	0.0182	-0.0073	-0.0462	0.0165	0.9585
19.5149	5.78	6.8565	4.4069	-2.0787	-2.8485	0.95771	-41.0595	763.5271	-66.4254	306.1293	91.9716	853.9294	-0.0592	0.0182	-0.0073	-0.0462	0.0165	0.9585
19.5266	1.2094	3.8629	1.3695	-1.2933	-1.2143	2.6569	-35.5489	764.5714	-68.5792	305.576	91.3883	846.7244	-0.0592	0.0182	-0.0073	-0.0462	0.0165	0.9585
19.5382	-1.6442	2.0607	-0.50181	-0.82123	-0.20747	3.7374	-31.208	761.9758	-69.7203	303.8762	90.1707	836.7067	-0.0592	0.0182	-0.0073	-0.0462	0.0165	0.9585
19.5499	-3.1401	1.0946	-1.4691	-0.56582	0.3163	4.223	-27.7545	756.7451	-70.0141	301.3772	88.4085	824.7463	-0.0592	0.0182	-0.0073	-0.0462	0.0165	0.9585
19.5615	-3.7694	0.72072	-1.8296	-0.45584	0.50019	4.3476	-24.8426	749.8777	-69.5771	298.4312	86.1185	811.6218	-0.0592	0.0182	-0.0073	-0.0462	0.0165	0.9585
19.5731	-3.8282	0.57752	-1.8097	-0.39225	0.46858	4.0633	-22.1815	742.2994	-68.5751	295.3697	83.3703	798.0629	-0.0592	0.0182	-0.0073	-0.0462	0.0165	0.9585
19.5848	-3.6604	0.41949	-1.5874	-0.30057	0.29404	3.4461	-19.4509	734.9153	-67.163	292.5156	80.2183	784.776	-0.0592	0.0182	-0.0073	-0.0462	0.0165	0.9585
19.5964	-3.3669	-0.015785	-1.2812	-0.1058	0.061665	2.3635	-16.4824	728.4589	-65.5216	290.1353	76.7795	772.3444	-0.0592	0.0182	-0.0073	-0.0462	0.0165	0.9585
19.6081	-3.1121	-0.89704	-0.96893	0.24821	-0.19345	0.7952	-13.099	723.4785	-63.8159	288.4241	73.1441	761.2064	-0.0592	0.0182	-0.0073	-0.0462	0.0165	0.9585
19.6197	-2.8442	-2.3699	-0.69704	0.80474	-0.40399	-1.4074	-9.1907	720.33	-62.1526	287.4973	69.3701	751.6502	-0.0592	0.0182	-0.0073	-0.0462	0.0165	0.9585
19.6314	-2.5744	-4.4386	-0.49105	1.5655	-0.53296	-4.1795	-4.7782	719.0566	-60.6113	287.3563	65.5209	743.6864	-0.0592	0.0182	-0.0073	-0.0462	0.0165	0.9585
19.643	-2.1463	-7.005	-0.37462	2.4863	-0.49881	-7.4551	0.082406	719.5036	-59.2362	287.904	61.6526	737.2202	-0.0592	0.0182	-0.0073	-0.0462	0.0165	0.9585
19.6546	-1.457	-9.683	-0.37272	3.4334	-0.22726	-10.7697	5.1834	721.1044	-58.0824	288.8815	57.8784	731.8123	-0.0592	0.0182	-0.0073	-0.0462	0.0165	0.9585
19.6663	-0.24735	-11.8055	-0.50585	4.1643	0.39332	-13.3865	10.2807	723.0439	-57.2012	289.9169	54.3319	726.8175	-0.0592	0.0182	-0.0073	-0.0462	0.0165	0.9585
19.6779	1.6457	-12.2349	-0.80058	4.2763	1.4597	-13.9522	15.12	724.4007	-56.6718	290.5906	51.1852	721.5276	-0.0592	0.0182	-0.0073	-0.0462	0.0165	0.9585
19.6896	4.4392	-9.374	-1.2709	3.1989	3.0622	-10.6078	19.4333	724.3346	-56.544	290.5329	48.5926	715.2888	-0.0592	0.0182	-0.0073	-0.0462	0.0165	0.9585
19.7012	8.162	-1.0875	-1.9328	0.17891	5.2204	-0.79324	23.0749	722.4404	-56.8415	289.5445	46.6532	707.8526	-0.0592	0.0182	-0.0073	-0.0462	0.0165	0.9585
19.7129	12.687	15.1106	-2.7457	-5.6638	7.8332	18.4278	26.0046	718.5535	-57.5082	287.5537	45.3483	699.1418	-0.0592	0.0182	-0.0073	-0.0462	0.0165	0.9585
19.7245	17.5048	41.8088	-3.6249	-15.2342	10.6127	50.1717	28.251	712.6227	-58.4163	284.5516	44.5704	689.1646	-0.0592	0.0182	-0.0073	-0.0462	0.0165	0.9585
19.7361	21.6339	80.9873	-4.3739	-29.2186	12.9696	96.8306	29.9227	704.3342	-59.3588	280.4553	44.1087	677.6145	-0.0592	0.0182	-0.0073	-0.0462	0.0165	0.9585
19.7478	23.3781	133.1228	-4.6922	-47.7513	13.9303	159.0465	31.1017	692.9187	-60.0286	275.0272	43.6601	663.7566	-0.0592	0.0182	-0.0073	-0.0462	0.0165	0.9585
19.7594	20.5842	196.0221	-4.0753	-70.0156	12.1429	234.2781	31.9292	677.1576	-60.0726	267.8722	42.8612	646.3666	-0.0592	0.0182	-0.0073	-0.0462	0.0165	0.9585
19.7711	12.1073	264.746	-1.927	-94.2015	6.5063	316.6919	32.4461	655.6313	-59.1196	258.5184	41.3591	624.0287	-0.0592	0.0182	-0.0073	-0.0462	0.0165	0.9585
19.7827	-0.41341	332.0326	2.4925	-117.6876	-3.2304	397.4389	32.7136	626.9536	-56.8941	246.5051	38.8937	595.325	-0.0592	0.0182	-0.0073	-0.0462	0.0165	0.9585
19.7944	-13.7503	390.7306	9.3185	-137.9666	-16.0065	467.4984	32.6916	590.1749	-53.3415	231.5064	35.4356	559.3061	-0.0592	0.0182	-0.0073	-0.0462	0.0165	0.9585
19.806	-25.5535	438.1338	17.5494	-154.1274	-29.7924	523.1759	32.3263	544.983	-48.662	213.4109	31.1953	515.6045	-0.0592	0.0182	-0.0073	-0.0462	0.0165	0.9585
19.8176	-34.7518	476.2488	26.0862	-166.9344	-42.9132	566.6463	31.4672	491.9711	-43.2092	192.4216	26.5349	464.7687	-0.0592	0.0182	-0.0073	-0.0462	0.0165	0.9585
19.8293	-40.9906	509.0733	33.9666	-177.8545	-54.1353	602.6867	30.0733	432.5437	-37.4298	169.0437	21.8675	408.0919	-0.0592	0.0182	-0.0073	-0.0462	0.0165	0.9585
19.8409	-44.3583	540.0268	40.6452	-188.1208	-62.8724	635.529	27.9506	368.8051	-31.6234	144.06	17.5031	347.5655	-0.0592	0.0182	-0.0073	-0.0462	0.0165	0.9585
19.8526	-45.1766	570.6125	45.9599	-198.2773	-69.0692	667.0748	25.0224	303.4368	-25.9949	118.4873	13.6433	285.6988	-0.0592	0.0182	-0.0073	-0.0462	0.0165	0.9585
19.8642	-43.787	600.9371	50.0978	-208.3389	-73.0825	697.5515	21.2274	239.4894	-20.6947	93.4951	10.4177	225.3692	-0.0592	0.0182	-0.0073	-0.0462	0.0165	0.9585
19.8759	-40.6026	630.3285	53.409	-218.0404	-75.4832	726.3524	16.814	180.0499	-15.8722	70.2791	7.8549	169.4193	-0.0592	0.0182	-0.0073	-0.0462	0.0165	0.9585
19.8875	-36.1667	658.0118	56.2155	-227.0789	-76.8424	752.7322	12.2339	127.8309	-11.6812	49.8821	5.9112	120.3687	-0.0592	0.0182	-0.0073	-0.0462	0.0165	0.9585
19.8991	-30.9931	683.1515	58.7458	-235.1472	-77.6117	775.9312	8.0281	84.4929	-8.1811	32.9604	4.4254	79.6894	-0.0592	0.0182	-0.0073	-0.0462	0.0165	0.9585
19.9108	-25.6039	704.8066	61.1102	-241.9236	-78.0999	795.0476	4.5482	50.6915	-5.3787	19.765	3.2699	47.9746	-0.0592	0.0182	-0.0073	-0.0462	0.0165	0.9585
